<?xml version="1.0" encoding="utf-8"?>
<!-- Generator: Adobe Illustrator 24.0.2, SVG Export Plug-In . SVG Version: 6.00 Build 0)  -->
<svg version="1.1" id="Слой_1" xmlns="http://www.w3.org/2000/svg" xmlns:xlink="http://www.w3.org/1999/xlink" x="0px" y="0px"
	 viewBox="0 0 1080 1080" style="enable-background:new 0 0 1080 1080;" xml:space="preserve">
<style type="text/css">
	.st0{enable-background:new    ;}
	.st1{fill:#FFFFFF;}
	.st2{fill:none;stroke:#FFFFFF;stroke-width:7;stroke-miterlimit:10;}
</style>
<g class="st0">
	<path class="st1" d="M416.4,435v169.3h-15.2V478.5h-44.7v-10.9c14.7-0.3,24.6-1.7,29.9-4c5.2-2.3,9.2-5.8,12-10.4
		c2.7-4.6,4.7-10.7,5.8-18.3H416.4z"/>
	<path class="st1" d="M534.4,433.5c14.8,0,27.1,3.8,36.9,11.5c9.8,7.7,14.6,17.9,14.6,30.8c0,9.2-2.4,17-7.1,23.6
		c-4.8,6.5-11.6,11.1-20.4,13.7v0.5c11.1,2.3,19.7,7.2,25.6,14.8c6,7.6,8.9,17.1,8.9,28.5c0,15.5-5.3,27.9-15.8,37.1
		c-10.6,9.3-24.7,13.9-42.4,13.9c-17.4,0-31.5-4.6-42.2-13.7c-10.7-9.1-16.1-21.4-16.1-36.9c0-10.8,3.1-20.3,9.2-28.4
		c6.1-8.1,14.5-13.3,25.1-15.4v-0.5c-18.4-5.8-27.6-18.2-27.6-37.2c0-12.6,4.8-22.8,14.4-30.6C507.2,437.4,519.4,433.5,534.4,433.5z
		 M491.6,556.9c0,11.8,3.8,21.1,11.5,27.9c7.7,6.9,18.2,10.3,31.6,10.3c13.2,0,23.7-3.3,31.4-10c7.7-6.7,11.6-16.1,11.6-28.2
		c0-11-3.9-19.8-11.7-26.6c-7.8-6.8-18.3-10.2-31.6-10.2c-13.5,0-24.1,3.3-31.6,10C495.4,536.8,491.6,545.7,491.6,556.9z
		 M498.4,475.8c0,9.7,3.3,17.3,9.8,23c6.5,5.6,15.1,8.5,25.8,8.5c11.3,0,20.2-2.7,26.8-8.2c6.6-5.5,9.9-13.2,9.9-23.2
		c0-9.2-3.3-16.4-9.8-21.6c-6.5-5.2-15.4-7.9-26.5-7.9c-10.6,0-19.3,2.8-26,8.3C501.8,460.2,498.4,467.3,498.4,475.8z"/>
	<path class="st1" d="M668.2,482.6H681V537h54.4v12.8H681v54.4h-12.8v-54.4h-54.4V537h54.4V482.6z"/>
</g>
<g>
	<path class="st2" d="M926.5,540c0,213.5-173.1,386.5-386.5,386.5c-94.4,0-180.8-33.8-247.9-90"/>
	<path class="st2" d="M153.5,540c0-213.5,173.1-386.5,386.5-386.5c103.5,0,197.5,40.7,266.9,107"/>
</g>
</svg>
