<?xml version="1.0" encoding="utf-8"?>
<!-- Generator: Adobe Illustrator 24.0.2, SVG Export Plug-In . SVG Version: 6.00 Build 0)  -->
<svg version="1.1" id="Слой_1" xmlns="http://www.w3.org/2000/svg" xmlns:xlink="http://www.w3.org/1999/xlink" x="0px" y="0px"
	 viewBox="0 0 1080 1080" style="enable-background:new 0 0 1080 1080;" xml:space="preserve">
<style type="text/css">
	.st0{fill:#DB0C28;}
	.st1{fill:#FFFFFF;}
</style>
<circle class="st0" cx="540" cy="540" r="538.26"/>
<g>
	<path class="st1" d="M540,264.12c76.06,0,145.03,30.94,194.98,80.89l21.77-21.76c-55.47-55.47-132.1-89.78-216.75-89.78
		c-169.29,0-306.54,137.25-306.54,306.53h30.65C264.12,387.88,387.88,264.12,540,264.12z"/>
	<path class="st1" d="M846.53,540C846.53,540,846.53,540,846.53,540l-1.56-0.01H540.04v30.62h274.1
		C798.85,708.38,681.77,815.88,540,815.88c-76.06,0-145.03-30.95-194.99-80.9l-21.77,21.76c55.47,55.47,132.1,89.78,216.75,89.78
		C709.29,846.53,846.53,709.3,846.53,540z"/>
</g>
</svg>
