<?xml version="1.0" standalone="no"?>
<!DOCTYPE svg PUBLIC "-//W3C//DTD SVG 20010904//EN"
 "http://www.w3.org/TR/2001/REC-SVG-20010904/DTD/svg10.dtd">
<svg version="1.0" xmlns="http://www.w3.org/2000/svg"
 width="120.000000pt" height="120.000000pt" viewBox="0 0 120.000000 120.000000"
 preserveAspectRatio="xMidYMid meet">
<metadata>
Created by potrace 1.14, written by Peter Selinger 2001-2017
</metadata>
<g transform="translate(0.000000,120.000000) scale(0.100000,-0.100000)"
fill="#000000" stroke="none">
<path d="M490 1188 c-231 -42 -426 -230 -474 -460 -13 -60 -14 -191 -1 -251
40 -197 210 -378 410 -439 69 -21 207 -29 280 -16 229 41 423 234 471 468 10
45 10 173 2 227 -9 53 -51 157 -85 207 -86 130 -217 224 -361 257 -61 14 -185
18 -242 7z"/>
</g>
</svg>
