<?xml version="1.0" standalone="no"?>
<!DOCTYPE svg PUBLIC "-//W3C//DTD SVG 20010904//EN"
 "http://www.w3.org/TR/2001/REC-SVG-20010904/DTD/svg10.dtd">
<svg version="1.0" xmlns="http://www.w3.org/2000/svg"
 width="700.000000pt" height="700.000000pt" viewBox="0 0 700.000000 700.000000"
 preserveAspectRatio="xMidYMid meet">
<metadata>
Created by potrace 1.14, written by Peter Selinger 2001-2017
</metadata>
<g transform="translate(0.000000,700.000000) scale(0.100000,-0.100000)"
fill="#000000" stroke="none">
<path d="M1019 6998 c-1 -2 -2 -1570 -3 -3486 l-2 -3483 1641 4 c902 2 1665 7
1695 10 30 3 80 9 110 12 30 4 71 9 90 11 19 2 46 6 60 9 14 3 43 8 65 11 22
3 58 9 80 14 22 5 56 12 75 15 54 9 235 62 330 97 175 63 395 183 514 280 142
116 297 291 382 433 162 268 246 605 247 990 1 107 -9 294 -17 345 -3 14 -7
43 -10 65 -32 222 -119 472 -229 655 -72 121 -244 322 -349 407 -107 87 -312
208 -420 248 l-48 18 98 72 c344 255 561 617 636 1060 26 149 28 173 30 355 6
381 -57 662 -213 945 -116 211 -323 429 -544 571 -37 24 -70 44 -73 44 -3 0
-18 8 -32 18 -38 26 -223 106 -317 137 -83 28 -234 68 -295 79 -19 3 -46 8
-60 11 -14 3 -41 7 -60 10 -19 3 -46 7 -60 10 -13 2 -54 7 -90 11 -36 3 -78 9
-95 12 -30 6 -3134 16 -3136 10z m2881 -1022 c212 -21 377 -64 522 -137 61
-31 133 -75 154 -94 6 -5 28 -26 50 -46 167 -151 256 -383 257 -669 2 -480
-221 -776 -682 -905 -47 -13 -104 -26 -126 -29 -23 -4 -52 -8 -65 -11 -80 -16
-281 -19 -1040 -20 l-845 0 -3 960 -2 960 852 -1 c469 0 887 -4 928 -8z m270
-2929 c14 -3 48 -8 75 -11 28 -3 61 -8 75 -11 298 -57 483 -144 635 -300 102
-104 187 -270 209 -405 3 -19 8 -46 12 -60 3 -14 8 -97 9 -185 5 -230 -26
-381 -108 -540 -75 -143 -239 -285 -412 -358 -70 -29 -175 -66 -175 -62 0 3
-12 0 -26 -6 -15 -5 -43 -12 -63 -15 -20 -3 -43 -7 -51 -9 -8 -3 -33 -7 -55
-10 -22 -3 -49 -7 -60 -10 -71 -14 -317 -18 -1150 -19 -517 -1 -946 0 -952 2
-10 3 -13 213 -13 1007 l0 1003 1013 -3 c556 -1 1023 -5 1037 -8z"/>
</g>
</svg>
